<svg xmlns="http://www.w3.org/2000/svg" width="29" height="29" viewBox="0 0 29 29" fill="none">
<path fill-rule="evenodd" clip-rule="evenodd" d="M25.375 8.375V25C25.375 26.933 23.752 28.5 21.75 28.5V26.75C22.751 26.75 23.5625 25.9665 23.5625 25V8.375H19.9375C18.436 8.375 17.2188 7.19975 17.2188 5.75V2.25H7.25C6.24898 2.25 5.4375 3.0335 5.4375 4V19.75H3.625V4C3.625 2.067 5.24797 0.5 7.25 0.5H17.2188L25.375 8.375ZM11.1677 24.4162V25.3288C11.1677 25.7766 11.0969 26.1508 10.9553 26.4516C10.8137 26.7524 10.619 26.978 10.3712 27.1284C10.1234 27.2754 9.84018 27.3488 9.52157 27.3488C9.19943 27.3488 8.91446 27.2754 8.66665 27.1284C8.42239 26.978 8.22946 26.7524 8.08786 26.4516C7.94625 26.1508 7.87545 25.7766 7.87545 25.3288V24.4162C7.87545 23.965 7.94625 23.5908 8.08786 23.2934C8.22946 22.9926 8.42239 22.7671 8.66665 22.6167C8.91446 22.4663 9.19943 22.3911 9.52157 22.3911C9.84018 22.3911 10.1234 22.4663 10.3712 22.6167C10.619 22.7671 10.8137 22.9926 10.9553 23.2934C11.0969 23.5908 11.1677 23.965 11.1677 24.4162ZM12.6226 25.3237V24.4265C12.6226 23.7668 12.4987 23.1994 12.2509 22.7243C12.0031 22.2458 11.6474 21.8784 11.1836 21.622C10.7234 21.3657 10.1694 21.2375 9.52157 21.2375C8.87729 21.2375 8.3215 21.3657 7.85421 21.622C7.39047 21.875 7.03469 22.2407 6.78689 22.7192C6.53909 23.1943 6.41519 23.7634 6.41519 24.4265V25.3237C6.41519 25.9799 6.53909 26.5473 6.78689 27.0258C7.03469 27.5009 7.39047 27.8667 7.85421 28.123C8.3215 28.3759 8.87729 28.5024 9.52157 28.5024C10.1694 28.5024 10.7234 28.3759 11.1836 28.123C11.6474 27.8667 12.0031 27.5009 12.2509 27.0258C12.4987 26.5473 12.6226 25.9799 12.6226 25.3237ZM0 21.3708V28.3691H2.64441C3.37366 28.3691 3.97723 28.2307 4.45514 27.9538C4.93658 27.677 5.2959 27.2754 5.53308 26.749C5.77026 26.2226 5.88885 25.5903 5.88885 24.852C5.88885 24.1171 5.77026 23.49 5.53308 22.9704C5.29944 22.4509 4.94366 22.0544 4.46576 21.781C3.98785 21.5075 3.38074 21.3708 2.64441 21.3708H0ZM1.43372 22.4987H2.45325C2.90283 22.4987 3.271 22.5876 3.55774 22.7653C3.84802 22.9431 4.06219 23.208 4.20026 23.56C4.34186 23.9121 4.41266 24.3513 4.41266 24.8776C4.41266 25.2741 4.37195 25.6193 4.29053 25.9133C4.21265 26.2072 4.09406 26.4533 3.93475 26.6516C3.77899 26.8464 3.57721 26.9934 3.32941 27.0925C3.0816 27.1882 2.78955 27.236 2.45325 27.236H1.43372V22.4987ZM14.8854 23.3447C14.7615 23.6489 14.6995 24.018 14.6995 24.4521V25.3186C14.6995 25.7492 14.7615 26.115 14.8854 26.4157C15.0093 26.7165 15.1898 26.9455 15.427 27.1027C15.6677 27.2566 15.9562 27.3335 16.2925 27.3335C16.5687 27.3335 16.8111 27.2822 17.02 27.1796C17.2289 27.0737 17.3935 26.9284 17.5138 26.7439C17.6342 26.5593 17.705 26.3474 17.7262 26.1081H19.1122V26.1748V26.2414C19.0874 26.6858 18.9511 27.0788 18.7033 27.4206C18.4555 27.759 18.1227 28.0239 17.705 28.2153C17.2873 28.4067 16.8129 28.5024 16.2819 28.5024C15.6305 28.5024 15.0783 28.3759 14.6252 28.123C14.1721 27.8667 13.8269 27.5009 13.5897 27.0258C13.3561 26.5507 13.2393 25.9817 13.2393 25.3186V24.447C13.2393 23.7839 13.3578 23.2131 13.595 22.7346C13.8322 22.2561 14.1774 21.8869 14.6305 21.6272C15.0872 21.3674 15.6376 21.2375 16.2819 21.2375C16.6784 21.2375 17.0448 21.2939 17.3811 21.4067C17.7209 21.5161 18.0165 21.675 18.2679 21.8835C18.5192 22.092 18.7175 22.3381 18.8626 22.6218C19.0113 22.9055 19.0945 23.2216 19.1122 23.5703V23.6369V23.6984H17.7262C17.705 23.4489 17.6324 23.2268 17.5085 23.0319C17.3882 22.8371 17.2236 22.685 17.0147 22.5756C16.8058 22.4629 16.5651 22.4065 16.2925 22.4065C15.9598 22.4065 15.673 22.4868 15.4323 22.6474C15.1951 22.8081 15.0128 23.0405 14.8854 23.3447Z" fill="#5C6898"/>
</svg>