<svg width="32" height="33" viewBox="0 0 32 33" fill="none" xmlns="http://www.w3.org/2000/svg">
<path d="M0 16.5C0 25.3366 7.16344 32.5 16 32.5C24.8366 32.5 32 25.3366 32 16.5C32 7.66344 24.8366 0.5 16 0.5C7.16344 0.5 0 7.66344 0 16.5Z" fill="white"/>
<path d="M24.1996 16.5C24.1996 18.6 22.4996 20.3 20.3996 20.3C18.2996 20.3 16.5996 18.6 16.5996 16.5C16.5996 14.4 18.2996 12.7 20.3996 12.7C22.4996 12.7 24.1996 14.4 24.1996 16.5Z" fill="#FF0084"/>
<path d="M15.5004 16.5C15.5004 18.6 13.8004 20.3 11.7004 20.3C9.60039 20.3 7.90039 18.6 7.90039 16.5C7.90039 14.4 9.60039 12.7 11.7004 12.7C13.7004 12.7 15.5004 14.4 15.5004 16.5Z" fill="#0063DC"/>
</svg>
