<svg width="32" height="33" viewBox="0 0 32 33" fill="none" xmlns="http://www.w3.org/2000/svg">
<g id="linkedin">
<path id="bg" d="M0 16.5C0 25.3366 7.16344 32.5 16 32.5C24.8366 32.5 32 25.3366 32 16.5C32 7.66344 24.8366 0.5 16 0.5C7.16344 0.5 0 7.66344 0 16.5Z" fill="#2867B2"/>
<path id="linkedin_2" d="M11.6 24.5H8.2V13.8H11.6V24.5ZM9.9 12.3C8.8 12.3 8 11.5 8 10.4C8 9.3 8.9 8.5 9.9 8.5C11 8.5 11.8 9.3 11.8 10.4C11.8 11.5 11 12.3 9.9 12.3ZM24 24.5H20.6V18.7C20.6 17 19.9 16.5 18.9 16.5C17.9 16.5 16.9 17.3 16.9 18.8V24.5H13.5V13.8H16.7V15.3C17 14.6 18.2 13.5 19.9 13.5C21.8 13.5 23.8 14.6 23.8 17.9V24.5H24Z" fill="white"/>
</g>
</svg>
