<svg xmlns="http://www.w3.org/2000/svg" width="24" height="24" viewBox="0 0 24 24" fill="none">
  <circle cx="12" cy="12" r="11.5" fill="white" stroke="#8D8D8D"/>
  <path d="M11.0384 3.36949C11.3145 2.40206 12.6855 2.40206 12.9616 3.36949L14.0261 7.09954C14.1742 7.6185 14.7074 7.92632 15.2309 7.7951L18.9934 6.85197C19.9693 6.60736 20.6548 7.79471 19.955 8.51752L17.257 11.3044C16.8816 11.6922 16.8816 12.3078 17.257 12.6956L19.955 15.4825C20.6548 16.2053 19.9693 17.3926 18.9934 17.148L15.2309 16.2049C14.7074 16.0737 14.1742 16.3815 14.0261 16.9005L12.9616 20.6305C12.6855 21.5979 11.3145 21.5979 11.0384 20.6305L9.97389 16.9005C9.82578 16.3815 9.29262 16.0737 8.76914 16.2049L5.00656 17.148C4.0307 17.3926 3.34518 16.2053 4.04495 15.4825L6.74302 12.6956C7.1184 12.3078 7.1184 11.6922 6.74302 11.3044L4.04495 8.51752C3.34518 7.7947 4.0307 6.60736 5.00656 6.85197L8.76914 7.7951C9.29262 7.92632 9.82578 7.6185 9.97388 7.09954L11.0384 3.36949Z" fill="#6E8BEB"/>
</svg>