<svg width="32" height="33" viewBox="0 0 32 33" fill="none" xmlns="http://www.w3.org/2000/svg">
<g id="twitter">
<path id="bg" d="M0 16.5C0 25.3366 7.16344 32.5 16 32.5C24.8366 32.5 32 25.3366 32 16.5C32 7.66344 24.8366 0.5 16 0.5C7.16344 0.5 0 7.66344 0 16.5Z" fill="#1DA1F2"/>
<path id="twitter_2" d="M24 11.5C23.4 11.8 22.8 11.9 22.1 12C22.8 11.6 23.3 11 23.5 10.2C22.9 10.6 22.2 10.8 21.4 11C20.8 10.4 19.9 10 19 10C16.9 10 15.3 12 15.8 14C13.1 13.9 10.7 12.6 9 10.6C8.1 12.1 8.6 14 10 15C9.5 15 9 14.8 8.5 14.6C8.5 16.1 9.6 17.5 11.1 17.9C10.6 18 10.1 18.1 9.6 18C10 19.3 11.2 20.3 12.7 20.3C11.5 21.2 9.7 21.7 8 21.5C9.5 22.4 11.2 23 13 23C19.1 23 22.5 17.9 22.3 13.2C23 12.8 23.6 12.2 24 11.5Z" fill="white"/>
</g>
</svg>
