<svg width="32" height="33" viewBox="0 0 32 33" fill="none" xmlns="http://www.w3.org/2000/svg">
<g id="vimeo">
<path id="bg" d="M0 16.5C0 25.3366 7.16344 32.5 16 32.5C24.8366 32.5 32 25.3366 32 16.5C32 7.66344 24.8366 0.5 16 0.5C7.16344 0.5 0 7.66344 0 16.5Z" fill="#1AB7EA"/>
<path id="vimeo_2" d="M8 13.3001L8.7 14.2001C8.7 14.2001 10 13.1001 10.5 13.7001C10.9 14.2001 12.7 20.6001 13.2 21.8001C13.7 22.8001 15.1 24.2001 16.6 23.2001C18.1 22.2001 23.1 18.0001 24 12.9001C24.9 7.90008 18 8.90008 17.3 13.3001C19 12.2001 20 13.7001 19 15.5001C18.1 17.2001 17.2 18.4001 16.8 18.4001C16.4 18.4001 16 17.2001 15.5 15.2001C15 13.0001 15 9.20008 12.8 9.70008C10.7 10.1001 8 13.3001 8 13.3001Z" fill="white"/>
</g>
</svg>
